<svg width="28" height="28" viewBox="0 0 28 28" xmlns="http://www.w3.org/2000/svg"><title>icon/alipay</title><path d="M26 18.647V5.165C26 2.865 24.137 1 21.837 1H4.165A4.164 4.164 0 0 0 0 5.165v17.67C0 25.135 1.863 27 4.165 27h17.672c2.3 0 4.163-1.864 4.163-4.165v-.17s-6.763-2.82-10.178-4.461c-2.29 2.817-5.245 4.528-8.312 4.528-5.188 0-6.95-4.54-4.493-7.528.536-.651 1.447-1.273 2.86-1.622 2.212-.544 5.733.34 9.032 1.428a18.123 18.123 0 0 0 1.465-3.58H6.206V10.4h5.242V8.556h-6.35v-1.03h6.35V4.89s0-.444.45-.444h2.562v3.077h6.279v1.03H14.46V10.4h5.125a20.976 20.976 0 0 1-2.17 5.48c1.555.563 2.952 1.096 3.992 1.444C25.15 18.58 26 18.647 26 18.647v4.188c0 2.3-1.863 4.165-4.163 4.165H4.165A4.164 4.164 0 0 1 0 22.835V5.165C0 2.865 1.863 1 4.165 1h17.672C24.137 1 26 2.864 26 5.165v13.482zM6.32 15.123c-.65.065-1.87.353-2.537.942-1.999 1.742-.803 4.93 3.242 4.93 2.35 0 4.7-1.504 6.546-3.91-2.624-1.282-4.85-2.199-7.252-1.962z" fill="#FFF" fill-rule="evenodd"/></svg>