<svg width="28" height="28" viewBox="0 0 28 28" xmlns="http://www.w3.org/2000/svg"><title>icon/wechatpay</title><path d="M11.274 16.386a.652.652 0 0 1-.3.073.665.665 0 0 1-.582-.348l-.043-.097-1.82-4.075a.337.337 0 0 1 .302-.483c.074 0 .142.025.198.067l2.148 1.56a.98.98 0 0 0 .888.104L22.17 8.6C20.358 6.423 17.375 5 14 5 8.477 5 4 8.806 4 13.5c0 2.562 1.347 4.868 3.455 6.426a.683.683 0 0 1 .245.77l-.45 1.715c-.021.08-.054.165-.054.25 0 .187.149.339.333.339a.369.369 0 0 0 .192-.063l2.19-1.29c.165-.097.339-.157.53-.157.103 0 .202.016.295.046 1.021.3 2.123.466 3.264.466 5.522 0 10-3.806 10-8.501 0-1.422-.413-2.761-1.14-3.94l-11.513 6.782-.073.043z" fill="#FFF" fill-rule="evenodd"/></svg>